<svg width="243" height="304" viewBox="0 0 243 304" fill="none" xmlns="http://www.w3.org/2000/svg">
<path d="M118.391 1.88366C120.302 0.725848 122.698 0.725848 124.609 1.88366L223.831 61.9985C225.626 63.0858 226.722 65.0317 226.722 67.1301V187.87C226.722 189.968 225.626 191.914 223.831 193.002L124.609 253.116C122.698 254.274 120.302 254.274 118.391 253.116L19.1689 193.002C17.3742 191.914 16.2779 189.968 16.2779 187.87V67.1301C16.2779 65.0317 17.3742 63.0858 19.1689 61.9985L118.391 1.88366Z" fill="white"/>
<path d="M119.944 145.819L68.6044 176.378C64.7095 178.697 64.6931 184.331 68.5744 186.672L119.788 217.563C121.753 218.748 124.222 218.709 126.148 217.461L175.857 185.273C179.599 182.85 179.485 177.335 175.645 175.069L126.063 145.807C124.174 144.693 121.828 144.697 119.944 145.819Z" fill="#A7AADC"/>
<g style="mix-blend-mode:multiply">
<mask id="mask0_32_443" style="mask-type:alpha" maskUnits="userSpaceOnUse" x="51" y="26" width="142" height="168">
<path d="M125.104 192.747C123.195 193.901 120.805 193.901 118.896 192.747L54.7479 153.968C52.9504 152.882 51.8519 150.934 51.8519 148.834L51.8519 70.7899C51.8519 68.6894 52.9504 66.7419 54.7479 65.6552L118.896 26.8764C120.805 25.7227 123.195 25.7227 125.104 26.8764L189.252 65.6552C191.05 66.7419 192.148 68.6894 192.148 70.7899L192.148 148.834C192.148 150.934 191.05 152.882 189.252 153.968L125.104 192.747Z" fill="#CFCFE7"/>
</mask>
<g mask="url(#mask0_32_443)">
<path d="M122 195.576H35.2824L35.2824 20.5176C35.2824 17.2039 37.9686 14.5176 41.2824 14.5176H116C119.314 14.5176 122 17.2039 122 20.5176L122 195.576Z" fill="#CFCFE7"/>
</g>
</g>
<g style="mix-blend-mode:multiply">
<mask id="mask1_32_443" style="mask-type:alpha" maskUnits="userSpaceOnUse" x="51" y="26" width="142" height="168">
<path d="M118.896 26.8764C120.805 25.7227 123.195 25.7227 125.104 26.8764L189.252 65.6552C191.05 66.7419 192.148 68.6894 192.148 70.7899V148.834C192.148 150.934 191.05 152.882 189.252 153.968L125.104 192.747C123.195 193.901 120.805 193.901 118.896 192.747L54.7479 153.968C52.9504 152.882 51.8519 150.934 51.8519 148.834V70.7899C51.8519 68.6894 52.9504 66.7419 54.7479 65.6552L118.896 26.8764Z" fill="#CFCFE7"/>
</mask>
<g mask="url(#mask1_32_443)">
<path d="M122 30.0471C122 26.7334 124.686 24.0471 128 24.0471H202.718C206.031 24.0471 208.718 26.7334 208.718 30.0471V205.106H122V30.0471Z" fill="#BABCE2"/>
</g>
</g>
<path d="M44.64 297V272.24H58.52V275.04H47.92V282.64H57.2V285.44H47.92V294.2H59.4V297H44.64ZM76.2 297C75.9333 296.467 75.6 295.88 75.2 295.24C74.8267 294.6 74.4133 293.947 73.96 293.28C73.5067 292.587 73.0267 291.907 72.52 291.24C72.04 290.573 71.56 289.947 71.08 289.36C70.6 289.973 70.0933 290.613 69.56 291.28C69.0267 291.947 68.5067 292.627 68 293.32C67.52 293.987 67.0667 294.64 66.64 295.28C66.2133 295.92 65.8533 296.493 65.56 297H62.16C63.04 295.4 64.1067 293.76 65.36 292.08C66.64 290.373 67.8933 288.76 69.12 287.24L62.44 278.44H66.16L71.16 284.92L75.76 278.44H79.28L73.16 287.04C74.36 288.613 75.56 290.253 76.76 291.96C77.9867 293.667 79.0267 295.347 79.88 297H76.2ZM91.2 294.64C92.0267 294.64 92.76 294.613 93.4 294.56C94.0667 294.507 94.6133 294.44 95.04 294.36V288.84C94.6133 288.707 94.0933 288.6 93.48 288.52C92.8933 288.44 92.2667 288.4 91.6 288.4C90.9867 288.4 90.3867 288.453 89.8 288.56C89.2133 288.64 88.6933 288.8 88.24 289.04C87.7867 289.28 87.4133 289.6 87.12 290C86.8267 290.373 86.68 290.853 86.68 291.44C86.68 292.64 87.08 293.48 87.88 293.96C88.7067 294.413 89.8133 294.64 91.2 294.64ZM90.88 278C92.2667 278 93.4267 278.173 94.36 278.52C95.32 278.867 96.0933 279.347 96.68 279.96C97.2667 280.573 97.68 281.32 97.92 282.2C98.16 283.08 98.28 284.04 98.28 285.08V296.68C97.5067 296.813 96.48 296.973 95.2 297.16C93.9467 297.347 92.6533 297.44 91.32 297.44C90.3067 297.44 89.32 297.347 88.36 297.16C87.4 297 86.5467 296.707 85.8 296.28C85.0533 295.827 84.4533 295.213 84 294.44C83.5467 293.667 83.32 292.68 83.32 291.48C83.32 290.413 83.5467 289.52 84 288.8C84.48 288.053 85.08 287.453 85.8 287C86.5467 286.547 87.3867 286.227 88.32 286.04C89.28 285.827 90.24 285.72 91.2 285.72C92.5067 285.72 93.7867 285.867 95.04 286.16V285.24C95.04 284.68 94.9733 284.147 94.84 283.64C94.7333 283.107 94.5067 282.627 94.16 282.2C93.84 281.773 93.3867 281.44 92.8 281.2C92.24 280.933 91.5067 280.8 90.6 280.8C89.4533 280.8 88.4533 280.88 87.6 281.04C86.7467 281.2 86.0933 281.36 85.64 281.52L85.24 278.8C85.6933 278.587 86.44 278.4 87.48 278.24C88.5467 278.08 89.68 278 90.88 278ZM119.8 278.44C119.32 280.173 118.773 281.88 118.16 283.56C117.547 285.213 116.92 286.84 116.28 288.44C115.64 290.013 114.987 291.52 114.32 292.96C113.653 294.4 113.013 295.747 112.4 297H109.4C108.147 294.493 106.88 291.64 105.6 288.44C104.32 285.24 103.187 281.907 102.2 278.44H105.8C106.12 279.613 106.48 280.853 106.88 282.16C107.307 283.467 107.747 284.773 108.2 286.08C108.653 287.387 109.107 288.653 109.56 289.88C110.04 291.08 110.507 292.16 110.96 293.12C111.413 292.16 111.88 291.08 112.36 289.88C112.867 288.653 113.36 287.387 113.84 286.08C114.32 284.773 114.773 283.467 115.2 282.16C115.653 280.853 116.04 279.613 116.36 278.44H119.8ZM131.36 278C133.867 278 135.8 278.787 137.16 280.36C138.52 281.907 139.2 284.267 139.2 287.44V288.6H125.92C126.053 290.52 126.68 291.987 127.8 293C128.947 293.987 130.547 294.48 132.6 294.48C133.773 294.48 134.773 294.387 135.6 294.2C136.427 294.013 137.053 293.813 137.48 293.6L137.92 296.4C137.52 296.613 136.8 296.84 135.76 297.08C134.72 297.32 133.547 297.44 132.24 297.44C130.64 297.44 129.227 297.2 128 296.72C126.8 296.213 125.8 295.533 125 294.68C124.2 293.827 123.6 292.813 123.2 291.64C122.8 290.44 122.6 289.147 122.6 287.76C122.6 286.107 122.853 284.667 123.36 283.44C123.867 282.213 124.533 281.2 125.36 280.4C126.187 279.6 127.12 279 128.16 278.6C129.2 278.2 130.267 278 131.36 278ZM135.84 285.92C135.84 284.347 135.427 283.107 134.6 282.2C133.773 281.267 132.68 280.8 131.32 280.8C130.547 280.8 129.84 280.947 129.2 281.24C128.587 281.533 128.053 281.92 127.6 282.4C127.147 282.88 126.787 283.427 126.52 284.04C126.253 284.653 126.08 285.28 126 285.92H135.84ZM145.28 297V279.44C148 278.507 150.747 278.04 153.52 278.04C154.373 278.04 155.187 278.08 155.96 278.16C156.733 278.213 157.587 278.347 158.52 278.56L157.92 281.48C157.067 281.24 156.307 281.093 155.64 281.04C155 280.96 154.293 280.92 153.52 280.92C151.893 280.92 150.24 281.147 148.56 281.6V297H145.28ZM175.04 292.36C175.04 291.693 174.76 291.147 174.2 290.72C173.667 290.293 172.987 289.92 172.16 289.6C171.36 289.28 170.48 288.973 169.52 288.68C168.56 288.36 167.667 287.973 166.84 287.52C166.04 287.067 165.36 286.507 164.8 285.84C164.267 285.173 164 284.307 164 283.24C164 281.747 164.6 280.507 165.8 279.52C167.027 278.507 168.933 278 171.52 278C172.533 278 173.573 278.08 174.64 278.24C175.733 278.373 176.667 278.56 177.44 278.8L176.84 281.76C176.627 281.653 176.333 281.547 175.96 281.44C175.587 281.307 175.16 281.2 174.68 281.12C174.2 281.013 173.68 280.933 173.12 280.88C172.587 280.827 172.067 280.8 171.56 280.8C168.68 280.8 167.24 281.587 167.24 283.16C167.24 283.72 167.507 284.2 168.04 284.6C168.6 284.973 169.293 285.32 170.12 285.64C170.947 285.96 171.84 286.293 172.8 286.64C173.76 286.96 174.653 287.36 175.48 287.84C176.307 288.32 176.987 288.907 177.52 289.6C178.08 290.267 178.36 291.12 178.36 292.16C178.36 293.84 177.707 295.147 176.4 296.08C175.093 296.987 173.027 297.44 170.2 297.44C168.92 297.44 167.747 297.333 166.68 297.12C165.613 296.907 164.6 296.587 163.64 296.16L164.28 293.16C165.213 293.587 166.187 293.947 167.2 294.24C168.24 294.507 169.347 294.64 170.52 294.64C173.533 294.64 175.04 293.88 175.04 292.36ZM191.36 278C193.867 278 195.8 278.787 197.16 280.36C198.52 281.907 199.2 284.267 199.2 287.44V288.6H185.92C186.053 290.52 186.68 291.987 187.8 293C188.947 293.987 190.547 294.48 192.6 294.48C193.773 294.48 194.773 294.387 195.6 294.2C196.427 294.013 197.053 293.813 197.48 293.6L197.92 296.4C197.52 296.613 196.8 296.84 195.76 297.08C194.72 297.32 193.547 297.44 192.24 297.44C190.64 297.44 189.227 297.2 188 296.72C186.8 296.213 185.8 295.533 185 294.68C184.2 293.827 183.6 292.813 183.2 291.64C182.8 290.44 182.6 289.147 182.6 287.76C182.6 286.107 182.853 284.667 183.36 283.44C183.867 282.213 184.533 281.2 185.36 280.4C186.187 279.6 187.12 279 188.16 278.6C189.2 278.2 190.267 278 191.36 278ZM195.84 285.92C195.84 284.347 195.427 283.107 194.6 282.2C193.773 281.267 192.68 280.8 191.32 280.8C190.547 280.8 189.84 280.947 189.2 281.24C188.587 281.533 188.053 281.92 187.6 282.4C187.147 282.88 186.787 283.427 186.52 284.04C186.253 284.653 186.08 285.28 186 285.92H195.84Z" fill="white"/>
</svg>
